<?xml version="1.0" encoding="utf-8" ?>
<svg baseProfile="full" height="600" version="1.1" viewBox="0 0 800 600" width="800" xmlns="http://www.w3.org/2000/svg" xmlns:ev="http://www.w3.org/2001/xml-events" xmlns:xlink="http://www.w3.org/1999/xlink"><defs /><rect fill="#e63946" height="140" width="220" x="40" y="40" /><circle cx="220" cy="160" fill="#1d3557" fill-opacity="0.5" r="90" /><polygon fill="#2a9d8f" fill-opacity="0.6" points="360,60 560,60 460,220" /><rect fill="none" height="160" stroke="#f1c40f" stroke-width="4" width="160" x="600" y="60" /><line stroke="#e76f51" stroke-width="3" x1="40" x2="760" y1="300" y2="300" /><ellipse cx="400.0" cy="470" fill="#c71585" fill-opacity="0.35" rx="300" ry="90" /><path d="M4.410,34.995 L13.432,34.995 L13.432,21.660 L26.745,21.660 L26.745,34.995 L35.767,34.995 L35.767,0.000 L26.745,0.000 L26.745,14.835 L13.432,14.835 L13.432,0.000 L4.410,0.000 L4.410,34.995 Z M70.404,13.192 L70.404,10.807 L50.792,10.807 Q51.092,7.853 52.922,6.375 Q54.752,4.897 58.029,4.897 Q60.677,4.897 63.452,5.685 Q66.234,6.473 69.167,8.062 L69.167,1.597 Q66.189,0.472 63.212,-0.105 Q60.234,-0.682 57.257,-0.682 Q50.132,-0.682 46.179,2.940 Q42.234,6.562 42.234,13.102 Q42.234,19.523 46.112,23.197 Q49.989,26.880 56.792,26.880 Q62.979,26.880 66.692,23.152 Q70.404,19.433 70.404,13.192 Z M61.779,15.982 Q61.779,18.375 60.384,19.837 Q58.989,21.307 56.739,21.307 Q54.302,21.307 52.779,19.935 Q51.257,18.562 50.882,15.982 L61.779,15.982 Z M76.762,36.472 L85.147,36.472 L85.147,0.000 L76.762,0.000 L76.762,36.472 Z M93.215,36.472 L101.600,36.472 L101.600,0.000 L93.215,0.000 L93.215,36.472 Z M122.155,20.880 Q119.365,20.880 117.903,18.877 Q116.440,16.875 116.440,13.102 Q116.440,9.330 117.903,7.320 Q119.365,5.317 122.155,5.317 Q124.900,5.317 126.348,7.320 Q127.803,9.330 127.803,13.102 Q127.803,16.875 126.348,18.877 Q124.900,20.880 122.155,20.880 Z M122.155,26.880 Q128.928,26.880 132.738,23.220 Q136.548,19.567 136.548,13.102 Q136.548,6.630 132.738,2.970 Q128.928,-0.682 122.155,-0.682 Q115.360,-0.682 111.528,2.970 Q107.695,6.630 107.695,13.102 Q107.695,19.567 111.528,23.220 Q115.360,26.880 122.155,26.880 Z M157.008,26.250 L165.168,26.250 L169.570,8.160 L174.003,26.250 L181.008,26.250 L185.418,8.348 L189.843,26.250 L198.003,26.250 L191.088,0.000 L181.923,0.000 L177.490,18.045 L173.088,0.000 L163.923,0.000 L157.008,26.250 Z M216.187,20.880 Q213.397,20.880 211.934,18.877 Q210.472,16.875 210.472,13.102 Q210.472,9.330 211.934,7.320 Q213.397,5.317 216.187,5.317 Q218.932,5.317 220.379,7.320 Q221.834,9.330 221.834,13.102 Q221.834,16.875 220.379,18.877 Q218.932,20.880 216.187,20.880 Z M216.187,26.880 Q222.959,26.880 226.769,23.220 Q230.579,19.567 230.579,13.102 Q230.579,6.630 226.769,2.970 Q222.959,-0.682 216.187,-0.682 Q209.392,-0.682 205.559,2.970 Q201.727,6.630 201.727,13.102 Q201.727,19.567 205.559,23.220 Q209.392,26.880 216.187,26.880 Z M256.176,19.102 Q255.073,19.620 253.978,19.860 Q252.891,20.107 251.788,20.107 Q248.556,20.107 246.808,18.030 Q245.061,15.960 245.061,12.098 L245.061,0.000 L236.676,0.000 L236.676,26.250 L245.061,26.250 L245.061,21.938 Q246.681,24.517 248.773,25.695 Q250.873,26.880 253.806,26.880 Q254.226,26.880 254.713,26.842 Q255.208,26.812 256.146,26.692 L256.176,19.102 Z M260.347,36.472 L268.733,36.472 L268.733,0.000 L260.347,0.000 L260.347,36.472 Z M294.658,22.410 L294.658,36.472 L303.096,36.472 L303.096,0.000 L294.658,0.000 L294.658,3.795 Q292.926,1.478 290.833,0.397 Q288.748,-0.682 286.011,-0.682 Q281.158,-0.682 278.038,3.172 Q274.926,7.035 274.926,13.102 Q274.926,19.170 278.038,23.025 Q281.158,26.880 286.011,26.880 Q288.726,26.880 290.826,25.793 Q292.926,24.705 294.658,22.410 Z M289.123,5.415 Q291.823,5.415 293.241,7.380 Q294.658,9.352 294.658,13.102 Q294.658,16.852 293.241,18.817 Q291.823,20.790 289.123,20.790 Q286.453,20.790 285.036,18.817 Q283.618,16.852 283.618,13.102 Q283.618,9.352 285.036,7.380 Q286.453,5.415 289.123,5.415 Z" fill="#222222" transform="translate(200, 400) scale(1, -1)" /></svg>